<?xml version="1.0" standalone="no"?>
<!DOCTYPE svg PUBLIC "-//W3C//DTD SVG 20010904//EN"
 "http://www.w3.org/TR/2001/REC-SVG-20010904/DTD/svg10.dtd">
<svg version="1.0" xmlns="http://www.w3.org/2000/svg"
 width="120.000000pt" height="120.000000pt" viewBox="0 0 580.000000 386.000000"
 preserveAspectRatio="xMidYMid meet">

<g transform="translate(0.000000,386.000000) scale(0.100000,-0.100000)"
fill="#BE3144" stroke="none">
<path d="M1600 2316 l0 -135 393 -3 c385 -3 393 -3 442 -26 102 -47 155 -123
155 -222 0 -75 -23 -124 -82 -174 -69 -60 -121 -69 -368 -70 l-215 -1 -3 188
-2 187 -160 0 -160 0 0 -321 0 -320 418 3 417 4 80 27 c249 83 395 268 395
498 0 217 -143 386 -395 470 -68 22 -82 23 -492 27 l-423 3 0 -135z"/>
<path d="M3133 2439 c-78 -13 -156 -46 -199 -83 -34 -30 -37 -37 -27 -53 83
-123 113 -208 120 -340 5 -82 9 -104 22 -108 57 -17 196 -25 479 -25 309 0
323 -1 342 -20 23 -23 26 -68 7 -94 -7 -9 -30 -21 -52 -26 -22 -6 -224 -10
-450 -9 -281 0 -411 -3 -413 -11 -2 -6 -21 -37 -43 -69 -38 -57 -75 -95 -149
-154 l-35 -27 590 3 c632 3 619 2 721 55 53 28 109 88 131 142 27 67 25 211
-5 267 -29 56 -81 96 -160 124 -64 22 -83 23 -449 28 -415 6 -404 5 -418 63
-5 21 -1 33 19 52 l25 26 389 0 388 0 74 97 c41 53 88 114 103 135 l29 38
-494 -1 c-271 -1 -516 -5 -545 -10z"/>
</g>
</svg>
